<svg width="20" height="22" viewBox="0 0 20 22" fill="none" xmlns="http://www.w3.org/2000/svg">
<g filter="url(#filter0_d_1117_2285)">
<path fill-rule="evenodd" clip-rule="evenodd" d="M12 4C12 5.10457 11.1046 6 10 6C8.89543 6 8 5.10457 8 4C8 2.89543 8.89543 2 10 2C11.1046 2 12 2.89543 12 4ZM14 4C14 6.20914 12.2091 8 10 8C7.79086 8 6 6.20914 6 4C6 1.79086 7.79086 0 10 0C12.2091 0 14 1.79086 14 4ZM8 9C5.79086 9 4 10.7909 4 13V14H6V13C6 11.8954 6.89543 11 8 11H12C13.1046 11 14 11.8954 14 13V14H16V13C16 10.7909 14.2091 9 12 9H8Z" fill="white"/>
</g>
<defs>
<filter id="filter0_d_1117_2285" x="0" y="0" width="20" height="22" filterUnits="userSpaceOnUse" color-interpolation-filters="sRGB">
<feFlood flood-opacity="0" result="BackgroundImageFix"/>
<feColorMatrix in="SourceAlpha" type="matrix" values="0 0 0 0 0 0 0 0 0 0 0 0 0 0 0 0 0 0 127 0" result="hardAlpha"/>
<feOffset dy="4"/>
<feGaussianBlur stdDeviation="2"/>
<feComposite in2="hardAlpha" operator="out"/>
<feColorMatrix type="matrix" values="0 0 0 0 0 0 0 0 0 0 0 0 0 0 0 0 0 0 0.25 0"/>
<feBlend mode="normal" in2="BackgroundImageFix" result="effect1_dropShadow_1117_2285"/>
<feBlend mode="normal" in="SourceGraphic" in2="effect1_dropShadow_1117_2285" result="shape"/>
</filter>
</defs>
</svg>
